<?xml version="1.0" encoding="utf-8" standalone="no"?>
<svg xmlns="http://www.w3.org/2000/svg" version="1.1" width="96px" height="124px">
  <style type="text/css">
#background {
  fill: none;
}
.arrows {
  fill: #000;
  stroke: none;
}
.selected>.arrows {
  fill: #fff;
}
.checkmark {
  fill: #000;
  font-family: sans-serif;
  font-size: 10pt;
  text-anchor: middle;
}
.trash {
  fill: #888;
}
.zoom {
  fill: none;
  stroke: #888;
  stroke-width: 2;
  stroke-linecap: round;
}
.zoom>.center {
  fill: #888;
  stroke-width: 0;
}
  </style>
  <rect id="background" width="96" height="124" x="0" y="0" />

  <g>
    <path class="arrows" d="M 13,1.5 13,14.5 1.74,8 z" />
    <path class="arrows" d="M 17.5,3 30.5,3 24,14.26 z" />
    <path class="arrows" d="M 35,1.5 35,14.5 46.26,8 z" />
  </g>
  <g class="selected" transform="translate(0, 16)">
    <path class="arrows" d="M 13,1.5 13,14.5 1.74,8 z" />
    <path class="arrows" d="M 17.5,3 30.5,3 24,14.26 z" />
    <path class="arrows" d="M 35,1.5 35,14.5 46.26,8 z" />
  </g>

  <text class="checkmark" x="55.5" y="28">&#10003;</text>

  <g class="trash">
    <path fill-rule="evenodd" clip-rule="evenodd" d="M27.125 7H31.5C32.4625 7 33.25 7.7875 33.25 8.75C33.25 9.7125 32.4625 10.5 31.5 10.5H10.5C9.5375 10.5 8.75 9.7125 8.75 8.75C8.75 7.7875 9.5375 7 10.5 7H14.875L16.1175 5.7575C16.4325 5.4425 16.8875 5.25 17.3425 5.25H24.6575C25.1125 5.25 25.5675 5.4425 25.8825 5.7575L27.125 7ZM14 36.75C12.075 36.75 10.5 35.175 10.5 33.25V15.75C10.5 13.825 12.075 12.25 14 12.25H28C29.925 12.25 31.5 13.825 31.5 15.75V33.25C31.5 35.175 29.925 36.75 28 36.75H14Z" fill="#8A8A8A" />
  </g>

  <g class="zoom">
    <circle r="11.5" cx="16" cy="108" />
    <circle r="4.3" cx="16" cy="108" class="center" />
    <path d="m 28,108 h3" />
    <path d="m 1,108 h3" />
    <path d="m 16,120 v3" />
    <path d="m 16,93 v3" />
  </g>

  <g class="zoom">
    <circle r="15" cx="48" cy="108" />
    <path d="m 48,101.6 v12.8" />
    <path d="m 41.6,108 h12.8" />
  </g>

  <g class="zoom">
    <circle r="15" cx="80" cy="108" />
    <path d="m 73.6,108 h12.8" />
  </g>
</svg>